<svg width="32" height="32" viewBox="0 0 32 32" fill="none" xmlns="http://www.w3.org/2000/svg">
<path d="M14.0655 0.672252C15.0135 -0.224084 16.4965 -0.224084 17.4445 0.672252L29.3554 11.9342C30.0924 12.631 30.51 13.6005 30.51 14.6147V28.3111C30.51 30.3483 28.8584 32 26.8213 32H21.9029C19.8657 32 18.2142 30.3483 18.2142 28.3111V22.1629C18.2142 21.4838 17.6637 20.9333 16.9846 20.9333H14.5254C13.8463 20.9333 13.2958 21.4838 13.2958 22.1629V28.3111C13.2958 30.3483 11.6443 32 9.60708 32H4.68875C2.6515 32 1 30.3483 1 28.3111V14.6147C1 13.6005 1.41757 12.631 2.15453 11.9342L14.0655 0.672252ZM15.755 2.45929L3.844 13.7212C3.59836 13.9535 3.45917 14.2766 3.45917 14.6147V28.3111C3.45917 28.9901 4.00968 29.5407 4.68875 29.5407H9.60708C10.2862 29.5407 10.8367 28.9901 10.8367 28.3111V22.1629C10.8367 20.1256 12.4882 18.474 14.5254 18.474H16.9846C19.0218 18.474 20.6733 20.1256 20.6733 22.1629V28.3111C20.6733 28.9901 21.2239 29.5407 21.9029 29.5407H26.8213C27.5002 29.5407 28.0508 28.9901 28.0508 28.3111V14.6147C28.0508 14.2766 27.9116 13.9535 27.666 13.7212L15.755 2.45929Z" fill="#385DE3"/>
</svg>
