<svg width="32" height="32" viewBox="0 0 32 32" fill="none" xmlns="http://www.w3.org/2000/svg">
<path d="M3.20165 2H4.80247C6.48945 2 7.87304 3.30681 7.99533 4.96259L8.00412 5.2014V27.6112C8.00412 29.2981 6.69721 30.6815 5.0413 30.8038L4.80247 30.8126H3.20165C1.51467 30.8126 0.131082 29.5058 0.0087871 27.85L0 27.6112V5.2014C0 3.51455 1.30691 2.13107 2.96282 2.00879L3.20165 2H4.80247H3.20165ZM12.8066 2H14.4074C16.0944 2 17.478 3.30681 17.6003 4.96259L17.6091 5.2014V27.6112C17.6091 29.2981 16.3022 30.6815 14.6462 30.8038L14.4074 30.8126H12.8066C11.1196 30.8126 9.73602 29.5058 9.61373 27.85L9.60494 27.6112V5.2014C9.60494 3.51455 10.9118 2.13107 12.5678 2.00879L12.8066 2H14.4074H12.8066ZM23.9712 5.2022C25.3152 5.2022 26.5456 6.05154 26.9967 7.35652L27.072 7.60645L31.8985 26.4083C32.3187 28.0416 31.397 29.7071 29.8226 30.2366L29.5933 30.3044L28.0421 30.703C27.7764 30.7702 27.5074 30.8038 27.2449 30.8038C25.9025 30.8038 24.6706 29.953 24.2207 28.6479L24.1457 28.3979L19.3176 9.59772C18.8989 7.96283 19.8192 6.29876 21.3949 5.7694L21.6244 5.70162L23.174 5.30304C23.4397 5.23421 23.7087 5.2022 23.9712 5.2022V5.2022ZM4.80247 4.40105H3.20165C2.80891 4.40105 2.48195 4.68562 2.41414 5.05802L2.40124 5.2014V27.6112C2.40124 28.0025 2.68456 28.3305 3.05783 28.3986L3.20165 28.4116H4.80247C5.19521 28.4116 5.52217 28.127 5.58998 27.7546L5.60288 27.6112V5.2014C5.60288 4.81012 5.31956 4.48207 4.94629 4.41401L4.80247 4.40105ZM14.4074 4.40105H12.8066C12.4139 4.40105 12.0869 4.68562 12.0191 5.05802L12.0062 5.2014V27.6112C12.0062 28.0025 12.2895 28.3305 12.6628 28.3986L12.8066 28.4116H14.4074C14.8001 28.4116 15.1271 28.127 15.1949 27.7546L15.2078 27.6112V5.2014C15.2078 4.81012 14.9245 4.48207 14.5512 4.41401L14.4074 4.40105ZM23.9728 7.60325L23.8714 7.60945L23.7711 7.62886L22.2215 8.02584C21.9414 8.09787 21.7941 8.28675 21.7301 8.3956C21.6801 8.48011 21.6087 8.63839 21.6189 8.84175L21.6436 9.00226L26.4717 27.8009C26.5774 28.2139 26.9471 28.4027 27.2449 28.4027L27.3449 28.3965L27.445 28.3771L28.9962 27.9786C29.3775 27.8818 29.6236 27.5245 29.5959 27.1473L29.5725 27.0053L24.746 8.20351C24.6388 7.79213 24.2706 7.60325 23.9728 7.60325V7.60325Z" fill="#385DE3"/>
</svg>
