<svg width="32" height="32" viewBox="0 0 32 32" fill="none" xmlns="http://www.w3.org/2000/svg">
<path d="M12.5714 0C19.5144 0 25.1429 5.62842 25.1429 12.5714C25.1429 15.6315 24.0495 18.4362 22.2321 20.6163L31.6653 30.049C32.1116 30.4953 32.1116 31.219 31.6653 31.6653C31.2685 32.062 30.6527 32.1061 30.2073 31.7975L30.049 31.6653L20.6163 22.2321C18.4362 24.0495 15.6315 25.1429 12.5714 25.1429C5.62842 25.1429 0 19.5144 0 12.5714C0 5.62842 5.62842 0 12.5714 0V0ZM12.5714 2.28571C6.89079 2.28571 2.28571 6.89079 2.28571 12.5714C2.28571 18.2521 6.89079 22.8571 12.5714 22.8571C18.2521 22.8571 22.8571 18.2521 22.8571 12.5714C22.8571 6.89079 18.2521 2.28571 12.5714 2.28571Z" fill="#385DE3"/>
</svg>
