<svg width="32" height="32" viewBox="0 0 32 32" fill="none" xmlns="http://www.w3.org/2000/svg">
<path d="M16.0893 10.6651C13.1428 10.6651 10.7541 13.0537 10.7541 16.0002C10.7541 18.9467 13.1428 21.3353 16.0893 21.3353C19.0358 21.3353 21.4244 18.9467 21.4244 16.0002C21.4244 13.0537 19.0358 10.6651 16.0893 10.6651V10.6651ZM13.4217 16.0002C13.4217 14.527 14.616 13.3326 16.0893 13.3326C17.5625 13.3326 18.7568 14.527 18.7568 16.0002C18.7568 17.4734 17.5625 18.6678 16.0893 18.6678C14.616 18.6678 13.4217 17.4734 13.4217 16.0002V16.0002Z" fill="#385DE3"/>
<path d="M23.0722 6.3925C22.0452 6.57902 21.0607 5.90114 20.8733 4.87842L20.1805 1.10173C20.1116 0.726432 19.8221 0.429638 19.4473 0.350251C18.3511 0.118066 17.2272 0 16.0885 0C14.9492 0 13.8246 0.118226 12.7277 0.350678C12.3529 0.430145 12.0633 0.727099 11.9946 1.10256L11.3037 4.87858C11.2853 4.97899 11.2587 5.07787 11.2241 5.17415C10.8728 6.15312 9.79093 6.66313 8.80772 6.31328L5.18124 5.02217C4.8208 4.89384 4.41821 4.99465 4.16159 5.27746C2.64412 6.94992 1.49405 8.92336 0.795897 11.0733C0.678124 11.436 0.791682 11.8336 1.08351 12.0803L4.02296 14.5652C4.10117 14.6313 4.17389 14.7037 4.24034 14.7817C4.91614 15.5741 4.8188 16.762 4.02293 17.4349L1.08351 19.9198C0.791682 20.1665 0.678124 20.5641 0.795897 20.9268C1.49405 23.0767 2.64412 25.0502 4.16159 26.7228C4.41821 27.0055 4.8208 27.1063 5.18124 26.978L8.80788 25.6867C8.90442 25.6525 9.00373 25.6258 9.10473 25.6074C10.1319 25.421 11.1164 26.0988 11.3037 27.1216L11.9946 30.8975C12.0633 31.2731 12.3529 31.57 12.7277 31.6495C13.8246 31.8818 14.9492 32 16.0885 32C17.2272 32 18.3511 31.8821 19.4473 31.6497C19.8221 31.5705 20.1116 31.2736 20.1805 30.8983L20.8733 27.1218C20.8917 27.021 20.9184 26.9223 20.9529 26.826C21.3043 25.847 22.3861 25.337 23.3694 25.6867L26.9957 26.978C27.3563 27.1063 27.7589 27.0055 28.0155 26.7228C29.5331 25.0502 30.683 23.0767 31.3811 20.9268C31.4991 20.5641 31.3854 20.1665 31.0936 19.9198L28.1542 17.4349C28.0758 17.3687 28.0032 17.2963 27.9368 17.2184C27.2608 16.4259 27.3582 15.2381 28.1542 14.5652L31.0936 12.0803C31.3854 11.8336 31.4991 11.436 31.3811 11.0733C30.683 8.92336 29.5331 6.94992 28.0155 5.27746C27.7589 4.99465 27.3563 4.89384 26.9957 5.02217L23.3691 6.31333C23.2725 6.34766 23.1733 6.37418 23.0722 6.3925V6.3925ZM5.4146 7.93684L7.91302 8.82631C10.2737 9.6663 12.884 8.44605 13.7349 6.07525C13.8185 5.84229 13.8831 5.60229 13.9277 5.35869L14.401 2.77208C14.9567 2.7027 15.5199 2.66757 16.0885 2.66757C16.6567 2.66757 17.2195 2.70265 17.7748 2.77192L18.2495 5.35973C18.7042 7.83958 21.084 9.46474 23.5489 9.01718C23.7917 8.97308 24.0312 8.90917 24.2638 8.82639L26.7625 7.93684C27.4428 8.82669 28.0083 9.79747 28.4444 10.8268L26.4317 12.5281C24.509 14.1539 24.2713 17.0312 25.907 18.9493C26.0674 19.1375 26.2431 19.3124 26.432 19.472L28.4444 21.1733C28.0083 22.2026 27.4428 23.1733 26.7625 24.0632L24.2635 23.1736C21.903 22.3335 19.293 23.5539 18.4421 25.9249C18.3585 26.1578 18.294 26.3978 18.2494 26.6414L17.7748 29.2281C17.2195 29.2975 16.6567 29.3324 16.0885 29.3324C15.5199 29.3324 14.9567 29.2975 14.401 29.2279L13.9276 26.6411C13.4734 24.1608 11.0933 22.5352 8.62814 22.9828C8.38531 23.0271 8.14584 23.0909 7.91318 23.1738L5.4146 24.0632C4.73421 23.1733 4.16879 22.2026 3.73273 21.1733L5.74522 19.472C7.66816 17.8462 7.90587 14.9689 6.27009 13.0508C6.10961 12.8626 5.93395 12.6877 5.74514 12.528L3.73273 10.8268C4.16879 9.79747 4.73421 8.82669 5.4146 7.93684V7.93684Z" fill="#385DE3"/>
</svg>
