<svg width="300" height="80" viewBox="0 0 300 80" fill="none" xmlns="http://www.w3.org/2000/svg">
<circle cx="40" cy="40" r="40" fill="#385DE3"/>
<path d="M64 45.891C64 59.1459 53.2548 69.8911 40 69.8911C26.7452 69.8911 16 59.1459 16 45.891C16 32.6362 32.7452 45.891 46 45.891C59.2548 45.891 64 32.6362 64 45.891Z" fill="white"/>
<path d="M130.25 36.5469V40.2266H111.781V36.5469H130.25ZM112.484 21.875V56H107.961V21.875H112.484ZM134.188 21.875V56H129.688V21.875H134.188ZM156.523 51.6641V38.6094C156.523 37.6094 156.32 36.7422 155.914 36.0078C155.523 35.2578 154.93 34.6797 154.133 34.2734C153.336 33.8672 152.352 33.6641 151.18 33.6641C150.086 33.6641 149.125 33.8516 148.297 34.2266C147.484 34.6016 146.844 35.0938 146.375 35.7031C145.922 36.3125 145.695 36.9688 145.695 37.6719H141.359C141.359 36.7656 141.594 35.8672 142.062 34.9766C142.531 34.0859 143.203 33.2812 144.078 32.5625C144.969 31.8281 146.031 31.25 147.266 30.8281C148.516 30.3906 149.906 30.1719 151.438 30.1719C153.281 30.1719 154.906 30.4844 156.312 31.1094C157.734 31.7344 158.844 32.6797 159.641 33.9453C160.453 35.1953 160.859 36.7656 160.859 38.6562V50.4688C160.859 51.3125 160.93 52.2109 161.07 53.1641C161.227 54.1172 161.453 54.9375 161.75 55.625V56H157.227C157.008 55.5 156.836 54.8359 156.711 54.0078C156.586 53.1641 156.523 52.3828 156.523 51.6641ZM157.273 40.625L157.32 43.6719H152.938C151.703 43.6719 150.602 43.7734 149.633 43.9766C148.664 44.1641 147.852 44.4531 147.195 44.8438C146.539 45.2344 146.039 45.7266 145.695 46.3203C145.352 46.8984 145.18 47.5781 145.18 48.3594C145.18 49.1562 145.359 49.8828 145.719 50.5391C146.078 51.1953 146.617 51.7188 147.336 52.1094C148.07 52.4844 148.969 52.6719 150.031 52.6719C151.359 52.6719 152.531 52.3906 153.547 51.8281C154.562 51.2656 155.367 50.5781 155.961 49.7656C156.57 48.9531 156.898 48.1641 156.945 47.3984L158.797 49.4844C158.688 50.1406 158.391 50.8672 157.906 51.6641C157.422 52.4609 156.773 53.2266 155.961 53.9609C155.164 54.6797 154.211 55.2812 153.102 55.7656C152.008 56.2344 150.773 56.4688 149.398 56.4688C147.68 56.4688 146.172 56.1328 144.875 55.4609C143.594 54.7891 142.594 53.8906 141.875 52.7656C141.172 51.625 140.82 50.3516 140.82 48.9453C140.82 47.5859 141.086 46.3906 141.617 45.3594C142.148 44.3125 142.914 43.4453 143.914 42.7578C144.914 42.0547 146.117 41.5234 147.523 41.1641C148.93 40.8047 150.5 40.625 152.234 40.625H157.273ZM172.016 34.625V56H167.68V30.6406H171.898L172.016 34.625ZM179.938 30.5L179.914 34.5312C179.555 34.4531 179.211 34.4062 178.883 34.3906C178.57 34.3594 178.211 34.3438 177.805 34.3438C176.805 34.3438 175.922 34.5 175.156 34.8125C174.391 35.125 173.742 35.5625 173.211 36.125C172.68 36.6875 172.258 37.3594 171.945 38.1406C171.648 38.9062 171.453 39.75 171.359 40.6719L170.141 41.375C170.141 39.8438 170.289 38.4062 170.586 37.0625C170.898 35.7188 171.375 34.5312 172.016 33.5C172.656 32.4531 173.469 31.6406 174.453 31.0625C175.453 30.4688 176.641 30.1719 178.016 30.1719C178.328 30.1719 178.688 30.2109 179.094 30.2891C179.5 30.3516 179.781 30.4219 179.938 30.5ZM188.258 35.6797V56H183.898V30.6406H188.023L188.258 35.6797ZM187.367 42.3594L185.352 42.2891C185.367 40.5547 185.594 38.9531 186.031 37.4844C186.469 36 187.117 34.7109 187.977 33.6172C188.836 32.5234 189.906 31.6797 191.188 31.0859C192.469 30.4766 193.953 30.1719 195.641 30.1719C196.828 30.1719 197.922 30.3438 198.922 30.6875C199.922 31.0156 200.789 31.5391 201.523 32.2578C202.258 32.9766 202.828 33.8984 203.234 35.0234C203.641 36.1484 203.844 37.5078 203.844 39.1016V56H199.508V39.3125C199.508 37.9844 199.281 36.9219 198.828 36.125C198.391 35.3281 197.766 34.75 196.953 34.3906C196.141 34.0156 195.188 33.8281 194.094 33.8281C192.812 33.8281 191.742 34.0547 190.883 34.5078C190.023 34.9609 189.336 35.5859 188.82 36.3828C188.305 37.1797 187.93 38.0938 187.695 39.125C187.477 40.1406 187.367 41.2188 187.367 42.3594ZM203.797 39.9688L200.891 40.8594C200.906 39.4688 201.133 38.1328 201.57 36.8516C202.023 35.5703 202.672 34.4297 203.516 33.4297C204.375 32.4297 205.43 31.6406 206.68 31.0625C207.93 30.4688 209.359 30.1719 210.969 30.1719C212.328 30.1719 213.531 30.3516 214.578 30.7109C215.641 31.0703 216.531 31.625 217.25 32.375C217.984 33.1094 218.539 34.0547 218.914 35.2109C219.289 36.3672 219.477 37.7422 219.477 39.3359V56H215.117V39.2891C215.117 37.8672 214.891 36.7656 214.438 35.9844C214 35.1875 213.375 34.6328 212.562 34.3203C211.766 33.9922 210.812 33.8281 209.703 33.8281C208.75 33.8281 207.906 33.9922 207.172 34.3203C206.438 34.6484 205.82 35.1016 205.32 35.6797C204.82 36.2422 204.438 36.8906 204.172 37.625C203.922 38.3594 203.797 39.1406 203.797 39.9688ZM224.891 43.6016V43.0625C224.891 41.2344 225.156 39.5391 225.688 37.9766C226.219 36.3984 226.984 35.0312 227.984 33.875C228.984 32.7031 230.195 31.7969 231.617 31.1562C233.039 30.5 234.633 30.1719 236.398 30.1719C238.18 30.1719 239.781 30.5 241.203 31.1562C242.641 31.7969 243.859 32.7031 244.859 33.875C245.875 35.0312 246.648 36.3984 247.18 37.9766C247.711 39.5391 247.977 41.2344 247.977 43.0625V43.6016C247.977 45.4297 247.711 47.125 247.18 48.6875C246.648 50.25 245.875 51.6172 244.859 52.7891C243.859 53.9453 242.648 54.8516 241.227 55.5078C239.82 56.1484 238.227 56.4688 236.445 56.4688C234.664 56.4688 233.062 56.1484 231.641 55.5078C230.219 54.8516 229 53.9453 227.984 52.7891C226.984 51.6172 226.219 50.25 225.688 48.6875C225.156 47.125 224.891 45.4297 224.891 43.6016ZM229.227 43.0625V43.6016C229.227 44.8672 229.375 46.0625 229.672 47.1875C229.969 48.2969 230.414 49.2812 231.008 50.1406C231.617 51 232.375 51.6797 233.281 52.1797C234.188 52.6641 235.242 52.9062 236.445 52.9062C237.633 52.9062 238.672 52.6641 239.562 52.1797C240.469 51.6797 241.219 51 241.812 50.1406C242.406 49.2812 242.852 48.2969 243.148 47.1875C243.461 46.0625 243.617 44.8672 243.617 43.6016V43.0625C243.617 41.8125 243.461 40.6328 243.148 39.5234C242.852 38.3984 242.398 37.4062 241.789 36.5469C241.195 35.6719 240.445 34.9844 239.539 34.4844C238.648 33.9844 237.602 33.7344 236.398 33.7344C235.211 33.7344 234.164 33.9844 233.258 34.4844C232.367 34.9844 231.617 35.6719 231.008 36.5469C230.414 37.4062 229.969 38.3984 229.672 39.5234C229.375 40.6328 229.227 41.8125 229.227 43.0625ZM257.75 36.0547V56H253.414V30.6406H257.516L257.75 36.0547ZM256.719 42.3594L254.914 42.2891C254.93 40.5547 255.188 38.9531 255.688 37.4844C256.188 36 256.891 34.7109 257.797 33.6172C258.703 32.5234 259.781 31.6797 261.031 31.0859C262.297 30.4766 263.695 30.1719 265.227 30.1719C266.477 30.1719 267.602 30.3438 268.602 30.6875C269.602 31.0156 270.453 31.5469 271.156 32.2812C271.875 33.0156 272.422 33.9688 272.797 35.1406C273.172 36.2969 273.359 37.7109 273.359 39.3828V56H269V39.3359C269 38.0078 268.805 36.9453 268.414 36.1484C268.023 35.3359 267.453 34.75 266.703 34.3906C265.953 34.0156 265.031 33.8281 263.938 33.8281C262.859 33.8281 261.875 34.0547 260.984 34.5078C260.109 34.9609 259.352 35.5859 258.711 36.3828C258.086 37.1797 257.594 38.0938 257.234 39.125C256.891 40.1406 256.719 41.2188 256.719 42.3594ZM287.07 53.375L294.125 30.6406H298.766L288.594 59.9141C288.359 60.5391 288.047 61.2109 287.656 61.9297C287.281 62.6641 286.797 63.3594 286.203 64.0156C285.609 64.6719 284.891 65.2031 284.047 65.6094C283.219 66.0312 282.227 66.2422 281.07 66.2422C280.727 66.2422 280.289 66.1953 279.758 66.1016C279.227 66.0078 278.852 65.9297 278.633 65.8672L278.609 62.3516C278.734 62.3672 278.93 62.3828 279.195 62.3984C279.477 62.4297 279.672 62.4453 279.781 62.4453C280.766 62.4453 281.602 62.3125 282.289 62.0469C282.977 61.7969 283.555 61.3672 284.023 60.7578C284.508 60.1641 284.922 59.3438 285.266 58.2969L287.07 53.375ZM281.891 30.6406L288.477 50.3281L289.602 54.8984L286.484 56.4922L277.156 30.6406H281.891Z" fill="white"/>
</svg>
